<mxfile host="app.diagrams.net" agent="Mozilla/5.0 (Macintosh; Intel Mac OS X 10_15_7) AppleWebKit/537.36 (KHTML, like Gecko) Chrome/131.0.0.0 Safari/537.36" version="25.0.3">
  <diagram name="第 1 页" id="wfr5NQ3VMvvhJ4h9N8eu">
    <mxGraphModel dx="1306" dy="716" grid="1" gridSize="10" guides="1" tooltips="1" connect="1" arrows="1" fold="1" page="1" pageScale="1" pageWidth="827" pageHeight="1169" math="0" shadow="0">
      <root>
        <mxCell id="0" />
        <mxCell id="1" parent="0" />
        <mxCell id="54PXZ7LDhPllogM06hKp-6" value="" style="rounded=0;whiteSpace=wrap;html=1;dashed=1;dashPattern=8 8;" vertex="1" parent="1">
          <mxGeometry x="50" y="230" width="810" height="410" as="geometry" />
        </mxCell>
        <mxCell id="54PXZ7LDhPllogM06hKp-44" value="" style="rounded=0;whiteSpace=wrap;html=1;dashed=1;strokeColor=#FF8000;fillStyle=hatch;" vertex="1" parent="1">
          <mxGeometry x="620" y="240" width="230" height="140" as="geometry" />
        </mxCell>
        <mxCell id="54PXZ7LDhPllogM06hKp-7" value="" style="rounded=0;whiteSpace=wrap;html=1;fillColor=#E6E6E6;" vertex="1" parent="1">
          <mxGeometry x="64" y="258" width="750" height="80" as="geometry" />
        </mxCell>
        <mxCell id="54PXZ7LDhPllogM06hKp-1" value="前端&lt;br&gt;（web/app/小程序）" style="rounded=0;whiteSpace=wrap;html=1;" vertex="1" parent="1">
          <mxGeometry x="120" y="120" width="120" height="50" as="geometry" />
        </mxCell>
        <mxCell id="54PXZ7LDhPllogM06hKp-2" value="定时任务&lt;br&gt;xxl-job" style="rounded=0;whiteSpace=wrap;html=1;" vertex="1" parent="1">
          <mxGeometry x="293" y="120" width="120" height="50" as="geometry" />
        </mxCell>
        <mxCell id="54PXZ7LDhPllogM06hKp-3" value="消息队列&lt;br&gt;sofaMQ" style="rounded=0;whiteSpace=wrap;html=1;" vertex="1" parent="1">
          <mxGeometry x="467" y="120" width="120" height="50" as="geometry" />
        </mxCell>
        <mxCell id="54PXZ7LDhPllogM06hKp-4" value="外部模块&lt;br&gt;maven-module" style="rounded=0;whiteSpace=wrap;html=1;" vertex="1" parent="1">
          <mxGeometry x="640" y="120" width="120" height="50" as="geometry" />
        </mxCell>
        <mxCell id="54PXZ7LDhPllogM06hKp-8" value="接&lt;br&gt;入&lt;br&gt;层" style="text;html=1;align=center;verticalAlign=middle;whiteSpace=wrap;rounded=0;" vertex="1" parent="1">
          <mxGeometry x="54" y="283" width="60" height="30" as="geometry" />
        </mxCell>
        <mxCell id="54PXZ7LDhPllogM06hKp-9" value="Controller" style="rounded=0;whiteSpace=wrap;html=1;" vertex="1" parent="1">
          <mxGeometry x="119" y="273" width="120" height="50" as="geometry" />
        </mxCell>
        <mxCell id="54PXZ7LDhPllogM06hKp-10" value="Job" style="rounded=0;whiteSpace=wrap;html=1;" vertex="1" parent="1">
          <mxGeometry x="292" y="273" width="120" height="50" as="geometry" />
        </mxCell>
        <mxCell id="54PXZ7LDhPllogM06hKp-11" value="MQ Consumer" style="rounded=0;whiteSpace=wrap;html=1;" vertex="1" parent="1">
          <mxGeometry x="466" y="273" width="120" height="50" as="geometry" />
        </mxCell>
        <mxCell id="54PXZ7LDhPllogM06hKp-12" value="API" style="rounded=0;whiteSpace=wrap;html=1;" vertex="1" parent="1">
          <mxGeometry x="639" y="273" width="120" height="50" as="geometry" />
        </mxCell>
        <mxCell id="54PXZ7LDhPllogM06hKp-13" value="" style="rounded=0;whiteSpace=wrap;html=1;fillColor=#FFF4C3;" vertex="1" parent="1">
          <mxGeometry x="64" y="390" width="750" height="80" as="geometry" />
        </mxCell>
        <mxCell id="54PXZ7LDhPllogM06hKp-14" value="逻&lt;br&gt;辑&lt;br&gt;层" style="text;html=1;align=center;verticalAlign=middle;whiteSpace=wrap;rounded=0;" vertex="1" parent="1">
          <mxGeometry x="54" y="415" width="60" height="30" as="geometry" />
        </mxCell>
        <mxCell id="54PXZ7LDhPllogM06hKp-15" value="Service" style="rounded=0;whiteSpace=wrap;html=1;" vertex="1" parent="1">
          <mxGeometry x="119" y="405" width="120" height="50" as="geometry" />
        </mxCell>
        <mxCell id="54PXZ7LDhPllogM06hKp-16" value="Service" style="rounded=0;whiteSpace=wrap;html=1;" vertex="1" parent="1">
          <mxGeometry x="639" y="405" width="120" height="50" as="geometry" />
        </mxCell>
        <mxCell id="54PXZ7LDhPllogM06hKp-17" value="" style="rounded=0;whiteSpace=wrap;html=1;fillColor=#FFCCFF;" vertex="1" parent="1">
          <mxGeometry x="64" y="520" width="366" height="80" as="geometry" />
        </mxCell>
        <mxCell id="54PXZ7LDhPllogM06hKp-18" value="存&lt;br&gt;储&lt;br&gt;层" style="text;html=1;align=center;verticalAlign=middle;whiteSpace=wrap;rounded=0;" vertex="1" parent="1">
          <mxGeometry x="54" y="545" width="60" height="30" as="geometry" />
        </mxCell>
        <mxCell id="54PXZ7LDhPllogM06hKp-19" value="Mapper&lt;br&gt;（数据库）" style="rounded=0;whiteSpace=wrap;html=1;" vertex="1" parent="1">
          <mxGeometry x="119" y="535" width="120" height="50" as="geometry" />
        </mxCell>
        <mxCell id="54PXZ7LDhPllogM06hKp-20" value="RedisDAO&lt;br&gt;(缓存)" style="rounded=0;whiteSpace=wrap;html=1;" vertex="1" parent="1">
          <mxGeometry x="292" y="535" width="120" height="50" as="geometry" />
        </mxCell>
        <mxCell id="54PXZ7LDhPllogM06hKp-23" value="" style="endArrow=classic;startArrow=classic;html=1;rounded=0;entryX=0.5;entryY=1;entryDx=0;entryDy=0;exitX=0.5;exitY=0;exitDx=0;exitDy=0;fillColor=#d5e8d4;strokeColor=#82b366;" edge="1" parent="1" source="54PXZ7LDhPllogM06hKp-9" target="54PXZ7LDhPllogM06hKp-1">
          <mxGeometry width="50" height="50" relative="1" as="geometry">
            <mxPoint x="160" y="258" as="sourcePoint" />
            <mxPoint x="210" y="208" as="targetPoint" />
          </mxGeometry>
        </mxCell>
        <mxCell id="54PXZ7LDhPllogM06hKp-34" value="&lt;font color=&quot;#006600&quot;&gt;ReqVO&lt;br&gt;ResVO&lt;/font&gt;" style="edgeLabel;html=1;align=center;verticalAlign=middle;resizable=0;points=[];" vertex="1" connectable="0" parent="54PXZ7LDhPllogM06hKp-23">
          <mxGeometry x="0.1847" y="-1" relative="1" as="geometry">
            <mxPoint as="offset" />
          </mxGeometry>
        </mxCell>
        <mxCell id="54PXZ7LDhPllogM06hKp-24" value="" style="endArrow=classic;startArrow=classic;html=1;rounded=0;entryX=0.5;entryY=1;entryDx=0;entryDy=0;exitX=0.5;exitY=0;exitDx=0;exitDy=0;fillColor=#dae8fc;strokeColor=#6c8ebf;" edge="1" parent="1" source="54PXZ7LDhPllogM06hKp-16" target="54PXZ7LDhPllogM06hKp-12">
          <mxGeometry width="50" height="50" relative="1" as="geometry">
            <mxPoint x="670" y="400" as="sourcePoint" />
            <mxPoint x="720" y="350" as="targetPoint" />
          </mxGeometry>
        </mxCell>
        <mxCell id="54PXZ7LDhPllogM06hKp-40" value="&lt;font color=&quot;#0000ff&quot;&gt;ReqDTO&lt;br&gt;ResDTO&lt;/font&gt;" style="edgeLabel;html=1;align=center;verticalAlign=middle;resizable=0;points=[];" vertex="1" connectable="0" parent="54PXZ7LDhPllogM06hKp-24">
          <mxGeometry relative="1" as="geometry">
            <mxPoint as="offset" />
          </mxGeometry>
        </mxCell>
        <mxCell id="54PXZ7LDhPllogM06hKp-25" value="" style="endArrow=classic;startArrow=classic;html=1;rounded=0;entryX=0.5;entryY=1;entryDx=0;entryDy=0;exitX=0.5;exitY=0;exitDx=0;exitDy=0;fillColor=#dae8fc;strokeColor=#6c8ebf;" edge="1" parent="1" source="54PXZ7LDhPllogM06hKp-12" target="54PXZ7LDhPllogM06hKp-4">
          <mxGeometry width="50" height="50" relative="1" as="geometry">
            <mxPoint x="660" y="240" as="sourcePoint" />
            <mxPoint x="710" y="190" as="targetPoint" />
          </mxGeometry>
        </mxCell>
        <mxCell id="54PXZ7LDhPllogM06hKp-39" value="&lt;font color=&quot;#0000ff&quot;&gt;ReqDTO&lt;br&gt;ResDTO&lt;/font&gt;" style="edgeLabel;html=1;align=center;verticalAlign=middle;resizable=0;points=[];" vertex="1" connectable="0" parent="54PXZ7LDhPllogM06hKp-25">
          <mxGeometry x="0.1648" y="2" relative="1" as="geometry">
            <mxPoint as="offset" />
          </mxGeometry>
        </mxCell>
        <mxCell id="54PXZ7LDhPllogM06hKp-26" value="" style="endArrow=classic;startArrow=classic;html=1;rounded=0;entryX=0.5;entryY=1;entryDx=0;entryDy=0;exitX=0.5;exitY=0;exitDx=0;exitDy=0;fillColor=#d5e8d4;strokeColor=#82b366;" edge="1" parent="1" source="54PXZ7LDhPllogM06hKp-19" target="54PXZ7LDhPllogM06hKp-15">
          <mxGeometry width="50" height="50" relative="1" as="geometry">
            <mxPoint x="140" y="520" as="sourcePoint" />
            <mxPoint x="190" y="470" as="targetPoint" />
          </mxGeometry>
        </mxCell>
        <mxCell id="54PXZ7LDhPllogM06hKp-36" value="&lt;font color=&quot;#006633&quot;&gt;ReqDO&lt;br&gt;ResDO&lt;/font&gt;" style="edgeLabel;html=1;align=center;verticalAlign=middle;resizable=0;points=[];" vertex="1" connectable="0" parent="54PXZ7LDhPllogM06hKp-26">
          <mxGeometry x="0.15" y="-1" relative="1" as="geometry">
            <mxPoint as="offset" />
          </mxGeometry>
        </mxCell>
        <mxCell id="54PXZ7LDhPllogM06hKp-27" value="" style="endArrow=classic;startArrow=classic;html=1;rounded=0;entryX=0.5;entryY=1;entryDx=0;entryDy=0;exitX=0.5;exitY=0;exitDx=0;exitDy=0;fillColor=#d5e8d4;strokeColor=#82b366;" edge="1" parent="1" source="54PXZ7LDhPllogM06hKp-15" target="54PXZ7LDhPllogM06hKp-9">
          <mxGeometry width="50" height="50" relative="1" as="geometry">
            <mxPoint x="154" y="390" as="sourcePoint" />
            <mxPoint x="204" y="340" as="targetPoint" />
          </mxGeometry>
        </mxCell>
        <mxCell id="54PXZ7LDhPllogM06hKp-35" value="&lt;font color=&quot;#006600&quot;&gt;ReqVO&lt;br&gt;ResVO&lt;/font&gt;" style="edgeLabel;html=1;align=center;verticalAlign=middle;resizable=0;points=[];" vertex="1" connectable="0" parent="54PXZ7LDhPllogM06hKp-27">
          <mxGeometry x="0.122" relative="1" as="geometry">
            <mxPoint as="offset" />
          </mxGeometry>
        </mxCell>
        <mxCell id="54PXZ7LDhPllogM06hKp-28" value="" style="endArrow=classic;html=1;rounded=0;entryX=0.5;entryY=0;entryDx=0;entryDy=0;exitX=0.5;exitY=1;exitDx=0;exitDy=0;fillColor=#e1d5e7;strokeColor=#9673a6;" edge="1" parent="1" source="54PXZ7LDhPllogM06hKp-3" target="54PXZ7LDhPllogM06hKp-11">
          <mxGeometry width="50" height="50" relative="1" as="geometry">
            <mxPoint x="460" y="200" as="sourcePoint" />
            <mxPoint x="530" y="200" as="targetPoint" />
          </mxGeometry>
        </mxCell>
        <mxCell id="54PXZ7LDhPllogM06hKp-37" value="&lt;font color=&quot;#6600cc&quot;&gt;Message&lt;/font&gt;" style="edgeLabel;html=1;align=center;verticalAlign=middle;resizable=0;points=[];" vertex="1" connectable="0" parent="54PXZ7LDhPllogM06hKp-28">
          <mxGeometry x="-0.3201" y="-2" relative="1" as="geometry">
            <mxPoint as="offset" />
          </mxGeometry>
        </mxCell>
        <mxCell id="54PXZ7LDhPllogM06hKp-29" value="" style="endArrow=classic;html=1;rounded=0;entryX=0.5;entryY=0;entryDx=0;entryDy=0;exitX=0.5;exitY=1;exitDx=0;exitDy=0;" edge="1" parent="1" source="54PXZ7LDhPllogM06hKp-2" target="54PXZ7LDhPllogM06hKp-10">
          <mxGeometry width="50" height="50" relative="1" as="geometry">
            <mxPoint x="310" y="190" as="sourcePoint" />
            <mxPoint x="377" y="190" as="targetPoint" />
          </mxGeometry>
        </mxCell>
        <mxCell id="54PXZ7LDhPllogM06hKp-30" value="" style="rounded=0;whiteSpace=wrap;html=1;fillColor=#B266FF;" vertex="1" parent="1">
          <mxGeometry x="461" y="520" width="129" height="80" as="geometry" />
        </mxCell>
        <mxCell id="54PXZ7LDhPllogM06hKp-31" value="MQ Producer" style="rounded=0;whiteSpace=wrap;html=1;" vertex="1" parent="1">
          <mxGeometry x="470" y="535" width="110" height="50" as="geometry" />
        </mxCell>
        <mxCell id="54PXZ7LDhPllogM06hKp-33" value="" style="endArrow=classic;startArrow=classic;html=1;rounded=0;entryX=1;entryY=0.5;entryDx=0;entryDy=0;exitX=1;exitY=0.5;exitDx=0;exitDy=0;dashed=1;" edge="1" parent="1" source="54PXZ7LDhPllogM06hKp-31" target="54PXZ7LDhPllogM06hKp-3">
          <mxGeometry width="50" height="50" relative="1" as="geometry">
            <mxPoint x="460" y="390" as="sourcePoint" />
            <mxPoint x="510" y="340" as="targetPoint" />
            <Array as="points">
              <mxPoint x="620" y="350" />
            </Array>
          </mxGeometry>
        </mxCell>
        <mxCell id="54PXZ7LDhPllogM06hKp-43" value="&lt;font color=&quot;#3333ff&quot;&gt;&lt;b&gt;LEO-Module-Biz&lt;/b&gt;&lt;/font&gt;" style="text;html=1;align=center;verticalAlign=middle;whiteSpace=wrap;rounded=0;" vertex="1" parent="1">
          <mxGeometry x="710" y="570" width="110" height="30" as="geometry" />
        </mxCell>
        <mxCell id="54PXZ7LDhPllogM06hKp-47" value="&lt;b style=&quot;&quot;&gt;&lt;font color=&quot;#cc6600&quot;&gt;LEO-Module-Api&lt;/font&gt;&lt;/b&gt;" style="text;html=1;align=center;verticalAlign=middle;whiteSpace=wrap;rounded=0;" vertex="1" parent="1">
          <mxGeometry x="740" y="350" width="110" height="30" as="geometry" />
        </mxCell>
      </root>
    </mxGraphModel>
  </diagram>
</mxfile>
